<svg xmlns="http://www.w3.org/2000/svg" xmlns:xlink="http://www.w3.org/1999/xlink" viewBox="0 0 32 32" width="30" height="30" style="" filter="none">
    
    <g>
    <path d="M10.663 12.445c0.54-0.195 0.93-0.362 1.17-0.499 0.672-0.385 1.242-0.909 1.71-1.572 0.71-1.006 0.842-1.47 1.613-4.287 0.051-0.185 0.152-0.438 0.306-0.759 0.708-1.187 1.717-1.78 3.025-1.777 1.264 0 2.275 0.592 3.034 1.777 0.189 0.327 0.323 0.692 0.401 1.096s0.079 0.867 0 1.39l-1.399 4.883c-0.025 0.078-0.025 0.134 0 0.17 0.027 0.039 0.066 0.058 0.117 0.058h4.251l-0.005 0.010h0.554c1.65 0 3 1.3 3 2.95 0 0.25-0.050 0.5-0.1 0.75l-1.496 9.555c-0.3 1.3-1.5 2.25-2.9 2.25h-18.615c-0.982 0-1.778-0.796-1.778-1.778v-12.444c0-0.982 0.796-1.778 1.778-1.778l5.333 0.004zM10.663 14.409v12.254h13.261c0.45 0 0.85-0.3 0.95-0.75 1.193-6.368 1.789-9.694 1.789-9.977 0-0.55-0.45-1-1-1h-1.725l-0.009 0.018h-3.238c-0.714 0-1.28-0.245-1.699-0.736-0.628-0.736-0.59-1.383-0.362-2.204 0.521-1.87 0.962-3.489 1.323-4.857-0.010-0.96-0.451-1.5-1.323-1.622s-1.448 0.358-1.728 1.44l-0.745 2.583c-0.853 2.302-2.52 3.855-5.002 4.66l-0.492 0.19zM5.33 26.663h3.556v-12.444h-3.556v12.444z" fill="rgba(255,255,255,1)"></path>
    </g>
  </svg>