<svg xmlns="http://www.w3.org/2000/svg" xmlns:xlink="http://www.w3.org/1999/xlink" viewBox="0 0 32 32" width="24" height="24" style="" filter="none">
    
    <g>
    <path d="M25.249 11.76c-2.589-2.353-5.753-3.76-9.249-3.76s-6.66 1.407-9.249 3.76c-1.815 1.65-3.165 3.749-3.195 4.224 0.004-0.067 0.034 0.023 0.109 0.18 0.143 0.299 0.369 0.673 0.661 1.086 0.684 0.966 1.637 2.014 2.73 2.964 2.718 2.363 5.843 3.786 8.945 3.786s6.227-1.423 8.945-3.786c1.093-0.95 2.046-1.998 2.73-2.964 0.292-0.413 0.518-0.787 0.661-1.086 0.069-0.145 0.1-0.233 0.107-0.196-0.058-0.504-1.398-2.576-3.194-4.208zM16 6.222c8.889 0 14.222 8 14.222 9.778s-6.222 9.778-14.222 9.778c-8 0-14.222-8-14.222-9.778s5.333-9.778 14.222-9.778zM16 10.667c-2.945 0-5.333 2.388-5.333 5.333s2.388 5.333 5.333 5.333 5.333-2.388 5.333-5.333-2.388-5.333-5.333-5.333zM16 12.444c1.964 0 3.556 1.592 3.556 3.556s-1.592 3.556-3.556 3.556-3.556-1.592-3.556-3.556 1.592-3.556 3.556-3.556z" fill="rgba(255,255,255,1)"></path>
    </g>
  </svg>