<svg xmlns="http://www.w3.org/2000/svg" xmlns:xlink="http://www.w3.org/1999/xlink" viewBox="0 0 32 32" width="24" height="24" style="" filter="none">
    
    <g>
    <path d="M18.399 2.369l5.333 3.556c0.528 0.352 0.528 1.127 0 1.479l-5.333 3.556c-0.591 0.394-1.382-0.030-1.382-0.74v-3.216c-4.576-0.419-9.038 2.263-10.684 6.784-1.959 5.382 0.816 11.333 6.198 13.292s11.333-0.816 13.292-6.198c0.178-0.469 0.336-1.031 0.447-1.61l0.010-0.065c0.006-0.033 0.013-0.065 0.020-0.097 0.010-0.089 0.030-0.17 0.059-0.247l-0.002 0.007c0.196-0.538 0.791-0.816 1.329-0.62s0.816 0.791 0.62 1.329c-0.111 0.678-0.292 1.349-0.534 2.013-2.351 6.458-9.492 9.788-15.95 7.438s-9.788-9.492-7.438-15.95c1.952-5.363 7.208-8.569 12.633-8.156v-1.813c0-0.71 0.791-1.133 1.382-0.74z" fill="rgba(16,16,16,1)"></path>
    </g>
  </svg>